<mxfile host="app.diagrams.net" agent="Mozilla/5.0 (X11; Linux x86_64; rv:123.0) Gecko/20100101 Firefox/123.0" version="24.7.6">
  <diagram id="R2lEEEUBdFMjLlhIrx00" name="Page-1">
    <mxGraphModel dx="1434" dy="732" grid="1" gridSize="10" guides="1" tooltips="1" connect="1" arrows="1" fold="1" page="1" pageScale="1" pageWidth="850" pageHeight="1100" math="0" shadow="0" extFonts="Permanent Marker^https://fonts.googleapis.com/css?family=Permanent+Marker">
      <root>
        <mxCell id="0" />
        <mxCell id="1" parent="0" />
        <mxCell id="vz9q21WE78nXBUaVW826-16" value="Product" style="swimlane;whiteSpace=wrap;html=1;" vertex="1" parent="1">
          <mxGeometry x="160" y="110" width="180" height="220" as="geometry" />
        </mxCell>
        <mxCell id="vz9q21WE78nXBUaVW826-27" value="" style="shape=table;startSize=0;container=1;collapsible=0;childLayout=tableLayout;fontSize=11;fillColor=none;strokeColor=none;" vertex="1" parent="vz9q21WE78nXBUaVW826-16">
          <mxGeometry y="30" width="180" height="60" as="geometry" />
        </mxCell>
        <mxCell id="vz9q21WE78nXBUaVW826-28" value="" style="shape=tableRow;horizontal=0;startSize=0;swimlaneHead=0;swimlaneBody=0;strokeColor=inherit;top=0;left=0;bottom=0;right=0;collapsible=0;dropTarget=0;fillColor=none;points=[[0,0.5],[1,0.5]];portConstraint=eastwest;fontSize=16;" vertex="1" parent="vz9q21WE78nXBUaVW826-27">
          <mxGeometry width="180" height="15" as="geometry" />
        </mxCell>
        <mxCell id="vz9q21WE78nXBUaVW826-29" value="productID" style="shape=partialRectangle;html=1;whiteSpace=wrap;connectable=0;strokeColor=inherit;overflow=hidden;fillColor=none;top=0;left=0;bottom=0;right=0;pointerEvents=1;fontSize=12;align=left;spacingLeft=5;" vertex="1" parent="vz9q21WE78nXBUaVW826-28">
          <mxGeometry width="180" height="15" as="geometry">
            <mxRectangle width="180" height="15" as="alternateBounds" />
          </mxGeometry>
        </mxCell>
        <mxCell id="vz9q21WE78nXBUaVW826-30" value="" style="shape=tableRow;horizontal=0;startSize=0;swimlaneHead=0;swimlaneBody=0;strokeColor=inherit;top=0;left=0;bottom=0;right=0;collapsible=0;dropTarget=0;fillColor=none;points=[[0,0.5],[1,0.5]];portConstraint=eastwest;fontSize=16;" vertex="1" parent="vz9q21WE78nXBUaVW826-27">
          <mxGeometry y="15" width="180" height="15" as="geometry" />
        </mxCell>
        <mxCell id="vz9q21WE78nXBUaVW826-31" value="productName" style="shape=partialRectangle;html=1;whiteSpace=wrap;connectable=0;strokeColor=inherit;overflow=hidden;fillColor=none;top=0;left=0;bottom=0;right=0;pointerEvents=1;fontSize=12;align=left;spacingLeft=5;" vertex="1" parent="vz9q21WE78nXBUaVW826-30">
          <mxGeometry width="180" height="15" as="geometry">
            <mxRectangle width="180" height="15" as="alternateBounds" />
          </mxGeometry>
        </mxCell>
        <mxCell id="vz9q21WE78nXBUaVW826-32" value="" style="shape=tableRow;horizontal=0;startSize=0;swimlaneHead=0;swimlaneBody=0;strokeColor=inherit;top=0;left=0;bottom=0;right=0;collapsible=0;dropTarget=0;fillColor=none;points=[[0,0.5],[1,0.5]];portConstraint=eastwest;fontSize=16;" vertex="1" parent="vz9q21WE78nXBUaVW826-27">
          <mxGeometry y="30" width="180" height="15" as="geometry" />
        </mxCell>
        <mxCell id="vz9q21WE78nXBUaVW826-33" value="productDescription" style="shape=partialRectangle;html=1;whiteSpace=wrap;connectable=0;strokeColor=inherit;overflow=hidden;fillColor=none;top=0;left=0;bottom=0;right=0;pointerEvents=1;fontSize=12;align=left;spacingLeft=5;" vertex="1" parent="vz9q21WE78nXBUaVW826-32">
          <mxGeometry width="180" height="15" as="geometry">
            <mxRectangle width="180" height="15" as="alternateBounds" />
          </mxGeometry>
        </mxCell>
        <mxCell id="vz9q21WE78nXBUaVW826-34" style="shape=tableRow;horizontal=0;startSize=0;swimlaneHead=0;swimlaneBody=0;strokeColor=inherit;top=0;left=0;bottom=0;right=0;collapsible=0;dropTarget=0;fillColor=none;points=[[0,0.5],[1,0.5]];portConstraint=eastwest;fontSize=16;" vertex="1" parent="vz9q21WE78nXBUaVW826-27">
          <mxGeometry y="45" width="180" height="15" as="geometry" />
        </mxCell>
        <mxCell id="vz9q21WE78nXBUaVW826-35" value="productCategory" style="shape=partialRectangle;html=1;whiteSpace=wrap;connectable=0;strokeColor=inherit;overflow=hidden;fillColor=none;top=0;left=0;bottom=0;right=0;pointerEvents=1;fontSize=12;align=left;spacingLeft=5;" vertex="1" parent="vz9q21WE78nXBUaVW826-34">
          <mxGeometry width="180" height="15" as="geometry">
            <mxRectangle width="180" height="15" as="alternateBounds" />
          </mxGeometry>
        </mxCell>
        <mxCell id="vz9q21WE78nXBUaVW826-36" value="" style="shape=table;startSize=0;container=1;collapsible=0;childLayout=tableLayout;fontSize=11;fillColor=none;strokeColor=none;" vertex="1" parent="vz9q21WE78nXBUaVW826-16">
          <mxGeometry y="90" width="190" height="60" as="geometry" />
        </mxCell>
        <mxCell id="vz9q21WE78nXBUaVW826-37" value="" style="shape=tableRow;horizontal=0;startSize=0;swimlaneHead=0;swimlaneBody=0;strokeColor=inherit;top=0;left=0;bottom=0;right=0;collapsible=0;dropTarget=0;fillColor=none;points=[[0,0.5],[1,0.5]];portConstraint=eastwest;fontSize=16;" vertex="1" parent="vz9q21WE78nXBUaVW826-36">
          <mxGeometry width="190" height="15" as="geometry" />
        </mxCell>
        <mxCell id="vz9q21WE78nXBUaVW826-38" value="productStatus" style="shape=partialRectangle;html=1;whiteSpace=wrap;connectable=0;strokeColor=inherit;overflow=hidden;fillColor=none;top=0;left=0;bottom=0;right=0;pointerEvents=1;fontSize=12;align=left;spacingLeft=5;" vertex="1" parent="vz9q21WE78nXBUaVW826-37">
          <mxGeometry width="190" height="15" as="geometry">
            <mxRectangle width="190" height="15" as="alternateBounds" />
          </mxGeometry>
        </mxCell>
        <mxCell id="vz9q21WE78nXBUaVW826-39" value="" style="shape=tableRow;horizontal=0;startSize=0;swimlaneHead=0;swimlaneBody=0;strokeColor=inherit;top=0;left=0;bottom=0;right=0;collapsible=0;dropTarget=0;fillColor=none;points=[[0,0.5],[1,0.5]];portConstraint=eastwest;fontSize=16;" vertex="1" parent="vz9q21WE78nXBUaVW826-36">
          <mxGeometry y="15" width="190" height="15" as="geometry" />
        </mxCell>
        <mxCell id="vz9q21WE78nXBUaVW826-40" value="isAvailableOnline" style="shape=partialRectangle;html=1;whiteSpace=wrap;connectable=0;strokeColor=inherit;overflow=hidden;fillColor=none;top=0;left=0;bottom=0;right=0;pointerEvents=1;fontSize=12;align=left;spacingLeft=5;" vertex="1" parent="vz9q21WE78nXBUaVW826-39">
          <mxGeometry width="190" height="15" as="geometry">
            <mxRectangle width="190" height="15" as="alternateBounds" />
          </mxGeometry>
        </mxCell>
        <mxCell id="vz9q21WE78nXBUaVW826-41" value="" style="shape=tableRow;horizontal=0;startSize=0;swimlaneHead=0;swimlaneBody=0;strokeColor=inherit;top=0;left=0;bottom=0;right=0;collapsible=0;dropTarget=0;fillColor=none;points=[[0,0.5],[1,0.5]];portConstraint=eastwest;fontSize=16;" vertex="1" parent="vz9q21WE78nXBUaVW826-36">
          <mxGeometry y="30" width="190" height="15" as="geometry" />
        </mxCell>
        <mxCell id="vz9q21WE78nXBUaVW826-42" value="isAvailableOffline" style="shape=partialRectangle;html=1;whiteSpace=wrap;connectable=0;strokeColor=inherit;overflow=hidden;fillColor=none;top=0;left=0;bottom=0;right=0;pointerEvents=1;fontSize=12;align=left;spacingLeft=5;" vertex="1" parent="vz9q21WE78nXBUaVW826-41">
          <mxGeometry width="190" height="15" as="geometry">
            <mxRectangle width="190" height="15" as="alternateBounds" />
          </mxGeometry>
        </mxCell>
        <mxCell id="vz9q21WE78nXBUaVW826-43" style="shape=tableRow;horizontal=0;startSize=0;swimlaneHead=0;swimlaneBody=0;strokeColor=inherit;top=0;left=0;bottom=0;right=0;collapsible=0;dropTarget=0;fillColor=none;points=[[0,0.5],[1,0.5]];portConstraint=eastwest;fontSize=16;" vertex="1" parent="vz9q21WE78nXBUaVW826-36">
          <mxGeometry y="45" width="190" height="15" as="geometry" />
        </mxCell>
        <mxCell id="vz9q21WE78nXBUaVW826-44" value="onlineSalesStartDate" style="shape=partialRectangle;html=1;whiteSpace=wrap;connectable=0;strokeColor=inherit;overflow=hidden;fillColor=none;top=0;left=0;bottom=0;right=0;pointerEvents=1;fontSize=12;align=left;spacingLeft=5;" vertex="1" parent="vz9q21WE78nXBUaVW826-43">
          <mxGeometry width="190" height="15" as="geometry">
            <mxRectangle width="190" height="15" as="alternateBounds" />
          </mxGeometry>
        </mxCell>
        <mxCell id="vz9q21WE78nXBUaVW826-45" value="" style="shape=table;startSize=0;container=1;collapsible=0;childLayout=tableLayout;fontSize=11;fillColor=none;strokeColor=none;" vertex="1" parent="1">
          <mxGeometry x="160" y="260" width="170" height="60" as="geometry" />
        </mxCell>
        <mxCell id="vz9q21WE78nXBUaVW826-46" value="" style="shape=tableRow;horizontal=0;startSize=0;swimlaneHead=0;swimlaneBody=0;strokeColor=inherit;top=0;left=0;bottom=0;right=0;collapsible=0;dropTarget=0;fillColor=none;points=[[0,0.5],[1,0.5]];portConstraint=eastwest;fontSize=16;" vertex="1" parent="vz9q21WE78nXBUaVW826-45">
          <mxGeometry width="170" height="15" as="geometry" />
        </mxCell>
        <mxCell id="vz9q21WE78nXBUaVW826-47" value="offlineSalesStartDate" style="shape=partialRectangle;html=1;whiteSpace=wrap;connectable=0;strokeColor=inherit;overflow=hidden;fillColor=none;top=0;left=0;bottom=0;right=0;pointerEvents=1;fontSize=12;align=left;spacingLeft=5;" vertex="1" parent="vz9q21WE78nXBUaVW826-46">
          <mxGeometry width="170" height="15" as="geometry">
            <mxRectangle width="170" height="15" as="alternateBounds" />
          </mxGeometry>
        </mxCell>
        <mxCell id="vz9q21WE78nXBUaVW826-48" value="" style="shape=tableRow;horizontal=0;startSize=0;swimlaneHead=0;swimlaneBody=0;strokeColor=inherit;top=0;left=0;bottom=0;right=0;collapsible=0;dropTarget=0;fillColor=none;points=[[0,0.5],[1,0.5]];portConstraint=eastwest;fontSize=16;" vertex="1" parent="vz9q21WE78nXBUaVW826-45">
          <mxGeometry y="15" width="170" height="15" as="geometry" />
        </mxCell>
        <mxCell id="vz9q21WE78nXBUaVW826-49" value="price" style="shape=partialRectangle;html=1;whiteSpace=wrap;connectable=0;strokeColor=inherit;overflow=hidden;fillColor=none;top=0;left=0;bottom=0;right=0;pointerEvents=1;fontSize=12;align=left;spacingLeft=5;" vertex="1" parent="vz9q21WE78nXBUaVW826-48">
          <mxGeometry width="170" height="15" as="geometry">
            <mxRectangle width="170" height="15" as="alternateBounds" />
          </mxGeometry>
        </mxCell>
        <mxCell id="vz9q21WE78nXBUaVW826-50" value="" style="shape=tableRow;horizontal=0;startSize=0;swimlaneHead=0;swimlaneBody=0;strokeColor=inherit;top=0;left=0;bottom=0;right=0;collapsible=0;dropTarget=0;fillColor=none;points=[[0,0.5],[1,0.5]];portConstraint=eastwest;fontSize=16;" vertex="1" parent="vz9q21WE78nXBUaVW826-45">
          <mxGeometry y="30" width="170" height="15" as="geometry" />
        </mxCell>
        <mxCell id="vz9q21WE78nXBUaVW826-51" value="priductOURL" style="shape=partialRectangle;html=1;whiteSpace=wrap;connectable=0;strokeColor=inherit;overflow=hidden;fillColor=none;top=0;left=0;bottom=0;right=0;pointerEvents=1;fontSize=12;align=left;spacingLeft=5;" vertex="1" parent="vz9q21WE78nXBUaVW826-50">
          <mxGeometry width="170" height="15" as="geometry">
            <mxRectangle width="170" height="15" as="alternateBounds" />
          </mxGeometry>
        </mxCell>
        <mxCell id="vz9q21WE78nXBUaVW826-52" style="shape=tableRow;horizontal=0;startSize=0;swimlaneHead=0;swimlaneBody=0;strokeColor=inherit;top=0;left=0;bottom=0;right=0;collapsible=0;dropTarget=0;fillColor=none;points=[[0,0.5],[1,0.5]];portConstraint=eastwest;fontSize=16;" vertex="1" parent="vz9q21WE78nXBUaVW826-45">
          <mxGeometry y="45" width="170" height="15" as="geometry" />
        </mxCell>
        <mxCell id="vz9q21WE78nXBUaVW826-53" value="isAvailableThroughPartners" style="shape=partialRectangle;html=1;whiteSpace=wrap;connectable=0;strokeColor=inherit;overflow=hidden;fillColor=none;top=0;left=0;bottom=0;right=0;pointerEvents=1;fontSize=12;align=left;spacingLeft=5;" vertex="1" parent="vz9q21WE78nXBUaVW826-52">
          <mxGeometry width="170" height="15" as="geometry">
            <mxRectangle width="170" height="15" as="alternateBounds" />
          </mxGeometry>
        </mxCell>
        <mxCell id="vz9q21WE78nXBUaVW826-54" value="Branch" style="swimlane;whiteSpace=wrap;html=1;" vertex="1" parent="1">
          <mxGeometry x="467.5" y="110" width="110" height="120" as="geometry" />
        </mxCell>
        <mxCell id="vz9q21WE78nXBUaVW826-55" value="" style="shape=table;startSize=0;container=1;collapsible=0;childLayout=tableLayout;fontSize=11;fillColor=none;strokeColor=none;" vertex="1" parent="vz9q21WE78nXBUaVW826-54">
          <mxGeometry y="30" width="190" height="60" as="geometry" />
        </mxCell>
        <mxCell id="vz9q21WE78nXBUaVW826-56" value="" style="shape=tableRow;horizontal=0;startSize=0;swimlaneHead=0;swimlaneBody=0;strokeColor=inherit;top=0;left=0;bottom=0;right=0;collapsible=0;dropTarget=0;fillColor=none;points=[[0,0.5],[1,0.5]];portConstraint=eastwest;fontSize=16;" vertex="1" parent="vz9q21WE78nXBUaVW826-55">
          <mxGeometry width="190" height="15" as="geometry" />
        </mxCell>
        <mxCell id="vz9q21WE78nXBUaVW826-57" value="branchID" style="shape=partialRectangle;html=1;whiteSpace=wrap;connectable=0;strokeColor=inherit;overflow=hidden;fillColor=none;top=0;left=0;bottom=0;right=0;pointerEvents=1;fontSize=12;align=left;spacingLeft=5;" vertex="1" parent="vz9q21WE78nXBUaVW826-56">
          <mxGeometry width="190" height="15" as="geometry">
            <mxRectangle width="190" height="15" as="alternateBounds" />
          </mxGeometry>
        </mxCell>
        <mxCell id="vz9q21WE78nXBUaVW826-58" value="" style="shape=tableRow;horizontal=0;startSize=0;swimlaneHead=0;swimlaneBody=0;strokeColor=inherit;top=0;left=0;bottom=0;right=0;collapsible=0;dropTarget=0;fillColor=none;points=[[0,0.5],[1,0.5]];portConstraint=eastwest;fontSize=16;" vertex="1" parent="vz9q21WE78nXBUaVW826-55">
          <mxGeometry y="15" width="190" height="15" as="geometry" />
        </mxCell>
        <mxCell id="vz9q21WE78nXBUaVW826-59" value="branchName" style="shape=partialRectangle;html=1;whiteSpace=wrap;connectable=0;strokeColor=inherit;overflow=hidden;fillColor=none;top=0;left=0;bottom=0;right=0;pointerEvents=1;fontSize=12;align=left;spacingLeft=5;" vertex="1" parent="vz9q21WE78nXBUaVW826-58">
          <mxGeometry width="190" height="15" as="geometry">
            <mxRectangle width="190" height="15" as="alternateBounds" />
          </mxGeometry>
        </mxCell>
        <mxCell id="vz9q21WE78nXBUaVW826-60" value="" style="shape=tableRow;horizontal=0;startSize=0;swimlaneHead=0;swimlaneBody=0;strokeColor=inherit;top=0;left=0;bottom=0;right=0;collapsible=0;dropTarget=0;fillColor=none;points=[[0,0.5],[1,0.5]];portConstraint=eastwest;fontSize=16;" vertex="1" parent="vz9q21WE78nXBUaVW826-55">
          <mxGeometry y="30" width="190" height="15" as="geometry" />
        </mxCell>
        <mxCell id="vz9q21WE78nXBUaVW826-61" value="workingHours" style="shape=partialRectangle;html=1;whiteSpace=wrap;connectable=0;strokeColor=inherit;overflow=hidden;fillColor=none;top=0;left=0;bottom=0;right=0;pointerEvents=1;fontSize=12;align=left;spacingLeft=5;" vertex="1" parent="vz9q21WE78nXBUaVW826-60">
          <mxGeometry width="190" height="15" as="geometry">
            <mxRectangle width="190" height="15" as="alternateBounds" />
          </mxGeometry>
        </mxCell>
        <mxCell id="vz9q21WE78nXBUaVW826-62" style="shape=tableRow;horizontal=0;startSize=0;swimlaneHead=0;swimlaneBody=0;strokeColor=inherit;top=0;left=0;bottom=0;right=0;collapsible=0;dropTarget=0;fillColor=none;points=[[0,0.5],[1,0.5]];portConstraint=eastwest;fontSize=16;" vertex="1" parent="vz9q21WE78nXBUaVW826-55">
          <mxGeometry y="45" width="190" height="15" as="geometry" />
        </mxCell>
        <mxCell id="vz9q21WE78nXBUaVW826-63" value="geolocation" style="shape=partialRectangle;html=1;whiteSpace=wrap;connectable=0;strokeColor=inherit;overflow=hidden;fillColor=none;top=0;left=0;bottom=0;right=0;pointerEvents=1;fontSize=12;align=left;spacingLeft=5;" vertex="1" parent="vz9q21WE78nXBUaVW826-62">
          <mxGeometry width="190" height="15" as="geometry">
            <mxRectangle width="190" height="15" as="alternateBounds" />
          </mxGeometry>
        </mxCell>
        <mxCell id="vz9q21WE78nXBUaVW826-65" value="Customer" style="swimlane;whiteSpace=wrap;html=1;" vertex="1" parent="1">
          <mxGeometry x="452.5" y="393.75" width="140" height="180" as="geometry" />
        </mxCell>
        <mxCell id="vz9q21WE78nXBUaVW826-66" value="" style="shape=table;startSize=0;container=1;collapsible=0;childLayout=tableLayout;fontSize=11;fillColor=none;strokeColor=none;" vertex="1" parent="vz9q21WE78nXBUaVW826-65">
          <mxGeometry y="30" width="120" height="125" as="geometry" />
        </mxCell>
        <mxCell id="vz9q21WE78nXBUaVW826-67" value="" style="shape=tableRow;horizontal=0;startSize=0;swimlaneHead=0;swimlaneBody=0;strokeColor=inherit;top=0;left=0;bottom=0;right=0;collapsible=0;dropTarget=0;fillColor=none;points=[[0,0.5],[1,0.5]];portConstraint=eastwest;fontSize=16;" vertex="1" parent="vz9q21WE78nXBUaVW826-66">
          <mxGeometry width="120" height="15" as="geometry" />
        </mxCell>
        <mxCell id="vz9q21WE78nXBUaVW826-68" value="customerID" style="shape=partialRectangle;html=1;whiteSpace=wrap;connectable=0;strokeColor=inherit;overflow=hidden;fillColor=none;top=0;left=0;bottom=0;right=0;pointerEvents=1;fontSize=12;align=left;spacingLeft=5;" vertex="1" parent="vz9q21WE78nXBUaVW826-67">
          <mxGeometry width="120" height="15" as="geometry">
            <mxRectangle width="120" height="15" as="alternateBounds" />
          </mxGeometry>
        </mxCell>
        <mxCell id="vz9q21WE78nXBUaVW826-69" value="" style="shape=tableRow;horizontal=0;startSize=0;swimlaneHead=0;swimlaneBody=0;strokeColor=inherit;top=0;left=0;bottom=0;right=0;collapsible=0;dropTarget=0;fillColor=none;points=[[0,0.5],[1,0.5]];portConstraint=eastwest;fontSize=16;" vertex="1" parent="vz9q21WE78nXBUaVW826-66">
          <mxGeometry y="15" width="120" height="15" as="geometry" />
        </mxCell>
        <mxCell id="vz9q21WE78nXBUaVW826-70" value="customerName" style="shape=partialRectangle;html=1;whiteSpace=wrap;connectable=0;strokeColor=inherit;overflow=hidden;fillColor=none;top=0;left=0;bottom=0;right=0;pointerEvents=1;fontSize=12;align=left;spacingLeft=5;" vertex="1" parent="vz9q21WE78nXBUaVW826-69">
          <mxGeometry width="120" height="15" as="geometry">
            <mxRectangle width="120" height="15" as="alternateBounds" />
          </mxGeometry>
        </mxCell>
        <mxCell id="vz9q21WE78nXBUaVW826-71" value="" style="shape=tableRow;horizontal=0;startSize=0;swimlaneHead=0;swimlaneBody=0;strokeColor=inherit;top=0;left=0;bottom=0;right=0;collapsible=0;dropTarget=0;fillColor=none;points=[[0,0.5],[1,0.5]];portConstraint=eastwest;fontSize=16;" vertex="1" parent="vz9q21WE78nXBUaVW826-66">
          <mxGeometry y="30" width="120" height="15" as="geometry" />
        </mxCell>
        <mxCell id="vz9q21WE78nXBUaVW826-72" value="streetName" style="shape=partialRectangle;html=1;whiteSpace=wrap;connectable=0;strokeColor=inherit;overflow=hidden;fillColor=none;top=0;left=0;bottom=0;right=0;pointerEvents=1;fontSize=12;align=left;spacingLeft=5;" vertex="1" parent="vz9q21WE78nXBUaVW826-71">
          <mxGeometry width="120" height="15" as="geometry">
            <mxRectangle width="120" height="15" as="alternateBounds" />
          </mxGeometry>
        </mxCell>
        <mxCell id="vz9q21WE78nXBUaVW826-73" style="shape=tableRow;horizontal=0;startSize=0;swimlaneHead=0;swimlaneBody=0;strokeColor=inherit;top=0;left=0;bottom=0;right=0;collapsible=0;dropTarget=0;fillColor=none;points=[[0,0.5],[1,0.5]];portConstraint=eastwest;fontSize=16;" vertex="1" parent="vz9q21WE78nXBUaVW826-66">
          <mxGeometry y="45" width="120" height="15" as="geometry" />
        </mxCell>
        <mxCell id="vz9q21WE78nXBUaVW826-74" value="city" style="shape=partialRectangle;html=1;whiteSpace=wrap;connectable=0;strokeColor=inherit;overflow=hidden;fillColor=none;top=0;left=0;bottom=0;right=0;pointerEvents=1;fontSize=12;align=left;spacingLeft=5;" vertex="1" parent="vz9q21WE78nXBUaVW826-73">
          <mxGeometry width="120" height="15" as="geometry">
            <mxRectangle width="120" height="15" as="alternateBounds" />
          </mxGeometry>
        </mxCell>
        <mxCell id="vz9q21WE78nXBUaVW826-76" value="" style="shape=tableRow;horizontal=0;startSize=0;swimlaneHead=0;swimlaneBody=0;strokeColor=inherit;top=0;left=0;bottom=0;right=0;collapsible=0;dropTarget=0;fillColor=none;points=[[0,0.5],[1,0.5]];portConstraint=eastwest;fontSize=16;" vertex="1" parent="vz9q21WE78nXBUaVW826-66">
          <mxGeometry y="60" width="120" height="15" as="geometry" />
        </mxCell>
        <mxCell id="vz9q21WE78nXBUaVW826-77" value="country&lt;span style=&quot;white-space: pre;&quot;&gt;&#x9;&lt;/span&gt;" style="shape=partialRectangle;html=1;whiteSpace=wrap;connectable=0;strokeColor=inherit;overflow=hidden;fillColor=none;top=0;left=0;bottom=0;right=0;pointerEvents=1;fontSize=12;align=left;spacingLeft=5;" vertex="1" parent="vz9q21WE78nXBUaVW826-76">
          <mxGeometry width="120" height="15" as="geometry">
            <mxRectangle width="120" height="15" as="alternateBounds" />
          </mxGeometry>
        </mxCell>
        <mxCell id="vz9q21WE78nXBUaVW826-78" value="" style="shape=tableRow;horizontal=0;startSize=0;swimlaneHead=0;swimlaneBody=0;strokeColor=inherit;top=0;left=0;bottom=0;right=0;collapsible=0;dropTarget=0;fillColor=none;points=[[0,0.5],[1,0.5]];portConstraint=eastwest;fontSize=16;" vertex="1" parent="vz9q21WE78nXBUaVW826-66">
          <mxGeometry y="75" width="120" height="20" as="geometry" />
        </mxCell>
        <mxCell id="vz9q21WE78nXBUaVW826-79" value="postalCode" style="shape=partialRectangle;html=1;whiteSpace=wrap;connectable=0;strokeColor=inherit;overflow=hidden;fillColor=none;top=0;left=0;bottom=0;right=0;pointerEvents=1;fontSize=12;align=left;spacingLeft=5;" vertex="1" parent="vz9q21WE78nXBUaVW826-78">
          <mxGeometry width="120" height="20" as="geometry">
            <mxRectangle width="120" height="20" as="alternateBounds" />
          </mxGeometry>
        </mxCell>
        <mxCell id="vz9q21WE78nXBUaVW826-80" value="" style="shape=tableRow;horizontal=0;startSize=0;swimlaneHead=0;swimlaneBody=0;strokeColor=inherit;top=0;left=0;bottom=0;right=0;collapsible=0;dropTarget=0;fillColor=none;points=[[0,0.5],[1,0.5]];portConstraint=eastwest;fontSize=16;" vertex="1" parent="vz9q21WE78nXBUaVW826-66">
          <mxGeometry y="95" width="120" height="15" as="geometry" />
        </mxCell>
        <mxCell id="vz9q21WE78nXBUaVW826-81" value="phoneNumber" style="shape=partialRectangle;html=1;whiteSpace=wrap;connectable=0;strokeColor=inherit;overflow=hidden;fillColor=none;top=0;left=0;bottom=0;right=0;pointerEvents=1;fontSize=12;align=left;spacingLeft=5;" vertex="1" parent="vz9q21WE78nXBUaVW826-80">
          <mxGeometry width="120" height="15" as="geometry">
            <mxRectangle width="120" height="15" as="alternateBounds" />
          </mxGeometry>
        </mxCell>
        <mxCell id="vz9q21WE78nXBUaVW826-82" style="shape=tableRow;horizontal=0;startSize=0;swimlaneHead=0;swimlaneBody=0;strokeColor=inherit;top=0;left=0;bottom=0;right=0;collapsible=0;dropTarget=0;fillColor=none;points=[[0,0.5],[1,0.5]];portConstraint=eastwest;fontSize=16;" vertex="1" parent="vz9q21WE78nXBUaVW826-66">
          <mxGeometry y="110" width="120" height="15" as="geometry" />
        </mxCell>
        <mxCell id="vz9q21WE78nXBUaVW826-83" value="email" style="shape=partialRectangle;html=1;whiteSpace=wrap;connectable=0;strokeColor=inherit;overflow=hidden;fillColor=none;top=0;left=0;bottom=0;right=0;pointerEvents=1;fontSize=12;align=left;spacingLeft=5;" vertex="1" parent="vz9q21WE78nXBUaVW826-82">
          <mxGeometry width="120" height="15" as="geometry">
            <mxRectangle width="120" height="15" as="alternateBounds" />
          </mxGeometry>
        </mxCell>
        <mxCell id="vz9q21WE78nXBUaVW826-93" value="" style="shape=table;startSize=0;container=1;collapsible=0;childLayout=tableLayout;fontSize=11;fillColor=none;strokeColor=none;" vertex="1" parent="vz9q21WE78nXBUaVW826-65">
          <mxGeometry y="155" width="130" height="65" as="geometry" />
        </mxCell>
        <mxCell id="vz9q21WE78nXBUaVW826-98" value="" style="shape=tableRow;horizontal=0;startSize=0;swimlaneHead=0;swimlaneBody=0;strokeColor=inherit;top=0;left=0;bottom=0;right=0;collapsible=0;dropTarget=0;fillColor=none;points=[[0,0.5],[1,0.5]];portConstraint=eastwest;fontSize=16;" vertex="1" parent="vz9q21WE78nXBUaVW826-93">
          <mxGeometry width="130" height="20" as="geometry" />
        </mxCell>
        <mxCell id="vz9q21WE78nXBUaVW826-99" value="nativeLanguage" style="shape=partialRectangle;html=1;whiteSpace=wrap;connectable=0;strokeColor=inherit;overflow=hidden;fillColor=none;top=0;left=0;bottom=0;right=0;pointerEvents=1;fontSize=12;align=left;spacingLeft=5;" vertex="1" parent="vz9q21WE78nXBUaVW826-98">
          <mxGeometry width="130" height="20" as="geometry">
            <mxRectangle width="130" height="20" as="alternateBounds" />
          </mxGeometry>
        </mxCell>
        <mxCell id="vz9q21WE78nXBUaVW826-100" style="shape=tableRow;horizontal=0;startSize=0;swimlaneHead=0;swimlaneBody=0;strokeColor=inherit;top=0;left=0;bottom=0;right=0;collapsible=0;dropTarget=0;fillColor=none;points=[[0,0.5],[1,0.5]];portConstraint=eastwest;fontSize=16;" vertex="1" parent="vz9q21WE78nXBUaVW826-93">
          <mxGeometry y="20" width="130" height="15" as="geometry" />
        </mxCell>
        <mxCell id="vz9q21WE78nXBUaVW826-101" value="" style="shape=partialRectangle;html=1;whiteSpace=wrap;connectable=0;strokeColor=inherit;overflow=hidden;fillColor=none;top=0;left=0;bottom=0;right=0;pointerEvents=1;fontSize=12;align=left;spacingLeft=5;" vertex="1" parent="vz9q21WE78nXBUaVW826-100">
          <mxGeometry width="130" height="15" as="geometry">
            <mxRectangle width="130" height="15" as="alternateBounds" />
          </mxGeometry>
        </mxCell>
        <mxCell id="vz9q21WE78nXBUaVW826-94" value="" style="shape=tableRow;horizontal=0;startSize=0;swimlaneHead=0;swimlaneBody=0;strokeColor=inherit;top=0;left=0;bottom=0;right=0;collapsible=0;dropTarget=0;fillColor=none;points=[[0,0.5],[1,0.5]];portConstraint=eastwest;fontSize=16;" vertex="1" parent="vz9q21WE78nXBUaVW826-93">
          <mxGeometry y="35" width="130" height="15" as="geometry" />
        </mxCell>
        <mxCell id="vz9q21WE78nXBUaVW826-95" value="" style="shape=partialRectangle;html=1;whiteSpace=wrap;connectable=0;strokeColor=inherit;overflow=hidden;fillColor=none;top=0;left=0;bottom=0;right=0;pointerEvents=1;fontSize=12;align=left;spacingLeft=5;" vertex="1" parent="vz9q21WE78nXBUaVW826-94">
          <mxGeometry width="130" height="15" as="geometry">
            <mxRectangle width="130" height="15" as="alternateBounds" />
          </mxGeometry>
        </mxCell>
        <mxCell id="vz9q21WE78nXBUaVW826-96" value="" style="shape=tableRow;horizontal=0;startSize=0;swimlaneHead=0;swimlaneBody=0;strokeColor=inherit;top=0;left=0;bottom=0;right=0;collapsible=0;dropTarget=0;fillColor=none;points=[[0,0.5],[1,0.5]];portConstraint=eastwest;fontSize=16;" vertex="1" parent="vz9q21WE78nXBUaVW826-93">
          <mxGeometry y="50" width="130" height="15" as="geometry" />
        </mxCell>
        <mxCell id="vz9q21WE78nXBUaVW826-97" value="" style="shape=partialRectangle;html=1;whiteSpace=wrap;connectable=0;strokeColor=inherit;overflow=hidden;fillColor=none;top=0;left=0;bottom=0;right=0;pointerEvents=1;fontSize=12;align=left;spacingLeft=5;" vertex="1" parent="vz9q21WE78nXBUaVW826-96">
          <mxGeometry width="130" height="15" as="geometry">
            <mxRectangle width="130" height="15" as="alternateBounds" />
          </mxGeometry>
        </mxCell>
        <mxCell id="vz9q21WE78nXBUaVW826-102" value="Order" style="swimlane;whiteSpace=wrap;html=1;" vertex="1" parent="1">
          <mxGeometry x="180" y="430" width="140" height="107.5" as="geometry" />
        </mxCell>
        <mxCell id="vz9q21WE78nXBUaVW826-103" value="" style="shape=table;startSize=0;container=1;collapsible=0;childLayout=tableLayout;fontSize=11;fillColor=none;strokeColor=none;" vertex="1" parent="vz9q21WE78nXBUaVW826-102">
          <mxGeometry y="25" width="190" height="60" as="geometry" />
        </mxCell>
        <mxCell id="vz9q21WE78nXBUaVW826-104" value="" style="shape=tableRow;horizontal=0;startSize=0;swimlaneHead=0;swimlaneBody=0;strokeColor=inherit;top=0;left=0;bottom=0;right=0;collapsible=0;dropTarget=0;fillColor=none;points=[[0,0.5],[1,0.5]];portConstraint=eastwest;fontSize=16;" vertex="1" parent="vz9q21WE78nXBUaVW826-103">
          <mxGeometry width="190" height="15" as="geometry" />
        </mxCell>
        <mxCell id="vz9q21WE78nXBUaVW826-105" value="orderID" style="shape=partialRectangle;html=1;whiteSpace=wrap;connectable=0;strokeColor=inherit;overflow=hidden;fillColor=none;top=0;left=0;bottom=0;right=0;pointerEvents=1;fontSize=12;align=left;spacingLeft=5;" vertex="1" parent="vz9q21WE78nXBUaVW826-104">
          <mxGeometry width="190" height="15" as="geometry">
            <mxRectangle width="190" height="15" as="alternateBounds" />
          </mxGeometry>
        </mxCell>
        <mxCell id="vz9q21WE78nXBUaVW826-106" value="" style="shape=tableRow;horizontal=0;startSize=0;swimlaneHead=0;swimlaneBody=0;strokeColor=inherit;top=0;left=0;bottom=0;right=0;collapsible=0;dropTarget=0;fillColor=none;points=[[0,0.5],[1,0.5]];portConstraint=eastwest;fontSize=16;" vertex="1" parent="vz9q21WE78nXBUaVW826-103">
          <mxGeometry y="15" width="190" height="15" as="geometry" />
        </mxCell>
        <mxCell id="vz9q21WE78nXBUaVW826-107" value="ordrDate" style="shape=partialRectangle;html=1;whiteSpace=wrap;connectable=0;strokeColor=inherit;overflow=hidden;fillColor=none;top=0;left=0;bottom=0;right=0;pointerEvents=1;fontSize=12;align=left;spacingLeft=5;" vertex="1" parent="vz9q21WE78nXBUaVW826-106">
          <mxGeometry width="190" height="15" as="geometry">
            <mxRectangle width="190" height="15" as="alternateBounds" />
          </mxGeometry>
        </mxCell>
        <mxCell id="vz9q21WE78nXBUaVW826-108" value="" style="shape=tableRow;horizontal=0;startSize=0;swimlaneHead=0;swimlaneBody=0;strokeColor=inherit;top=0;left=0;bottom=0;right=0;collapsible=0;dropTarget=0;fillColor=none;points=[[0,0.5],[1,0.5]];portConstraint=eastwest;fontSize=16;" vertex="1" parent="vz9q21WE78nXBUaVW826-103">
          <mxGeometry y="30" width="190" height="15" as="geometry" />
        </mxCell>
        <mxCell id="vz9q21WE78nXBUaVW826-109" value="orderPlacementMethod" style="shape=partialRectangle;html=1;whiteSpace=wrap;connectable=0;strokeColor=inherit;overflow=hidden;fillColor=none;top=0;left=0;bottom=0;right=0;pointerEvents=1;fontSize=12;align=left;spacingLeft=5;" vertex="1" parent="vz9q21WE78nXBUaVW826-108">
          <mxGeometry width="190" height="15" as="geometry">
            <mxRectangle width="190" height="15" as="alternateBounds" />
          </mxGeometry>
        </mxCell>
        <mxCell id="vz9q21WE78nXBUaVW826-110" style="shape=tableRow;horizontal=0;startSize=0;swimlaneHead=0;swimlaneBody=0;strokeColor=inherit;top=0;left=0;bottom=0;right=0;collapsible=0;dropTarget=0;fillColor=none;points=[[0,0.5],[1,0.5]];portConstraint=eastwest;fontSize=16;" vertex="1" parent="vz9q21WE78nXBUaVW826-103">
          <mxGeometry y="45" width="190" height="15" as="geometry" />
        </mxCell>
        <mxCell id="vz9q21WE78nXBUaVW826-111" value="customerID" style="shape=partialRectangle;html=1;whiteSpace=wrap;connectable=0;strokeColor=inherit;overflow=hidden;fillColor=none;top=0;left=0;bottom=0;right=0;pointerEvents=1;fontSize=12;align=left;spacingLeft=5;" vertex="1" parent="vz9q21WE78nXBUaVW826-110">
          <mxGeometry width="190" height="15" as="geometry">
            <mxRectangle width="190" height="15" as="alternateBounds" />
          </mxGeometry>
        </mxCell>
        <mxCell id="vz9q21WE78nXBUaVW826-112" value="" style="shape=table;startSize=0;container=1;collapsible=0;childLayout=tableLayout;fontSize=11;fillColor=none;strokeColor=none;" vertex="1" parent="vz9q21WE78nXBUaVW826-102">
          <mxGeometry y="85.5" width="60" height="50" as="geometry" />
        </mxCell>
        <mxCell id="vz9q21WE78nXBUaVW826-113" value="" style="shape=tableRow;horizontal=0;startSize=0;swimlaneHead=0;swimlaneBody=0;strokeColor=inherit;top=0;left=0;bottom=0;right=0;collapsible=0;dropTarget=0;fillColor=none;points=[[0,0.5],[1,0.5]];portConstraint=eastwest;fontSize=16;" vertex="1" parent="vz9q21WE78nXBUaVW826-112">
          <mxGeometry width="60" height="15" as="geometry" />
        </mxCell>
        <mxCell id="vz9q21WE78nXBUaVW826-114" value="productID" style="shape=partialRectangle;html=1;whiteSpace=wrap;connectable=0;strokeColor=inherit;overflow=hidden;fillColor=none;top=0;left=0;bottom=0;right=0;pointerEvents=1;fontSize=12;align=left;spacingLeft=5;" vertex="1" parent="vz9q21WE78nXBUaVW826-113">
          <mxGeometry width="60" height="15" as="geometry">
            <mxRectangle width="60" height="15" as="alternateBounds" />
          </mxGeometry>
        </mxCell>
        <mxCell id="vz9q21WE78nXBUaVW826-115" value="" style="shape=tableRow;horizontal=0;startSize=0;swimlaneHead=0;swimlaneBody=0;strokeColor=inherit;top=0;left=0;bottom=0;right=0;collapsible=0;dropTarget=0;fillColor=none;points=[[0,0.5],[1,0.5]];portConstraint=eastwest;fontSize=16;" vertex="1" parent="vz9q21WE78nXBUaVW826-112">
          <mxGeometry y="15" width="60" height="15" as="geometry" />
        </mxCell>
        <mxCell id="vz9q21WE78nXBUaVW826-116" value="" style="shape=partialRectangle;html=1;whiteSpace=wrap;connectable=0;strokeColor=inherit;overflow=hidden;fillColor=none;top=0;left=0;bottom=0;right=0;pointerEvents=1;fontSize=12;align=left;spacingLeft=5;" vertex="1" parent="vz9q21WE78nXBUaVW826-115">
          <mxGeometry width="60" height="15" as="geometry">
            <mxRectangle width="60" height="15" as="alternateBounds" />
          </mxGeometry>
        </mxCell>
        <mxCell id="vz9q21WE78nXBUaVW826-119" style="shape=tableRow;horizontal=0;startSize=0;swimlaneHead=0;swimlaneBody=0;strokeColor=inherit;top=0;left=0;bottom=0;right=0;collapsible=0;dropTarget=0;fillColor=none;points=[[0,0.5],[1,0.5]];portConstraint=eastwest;fontSize=16;" vertex="1" parent="vz9q21WE78nXBUaVW826-112">
          <mxGeometry y="30" width="60" height="20" as="geometry" />
        </mxCell>
        <mxCell id="vz9q21WE78nXBUaVW826-120" value="" style="shape=partialRectangle;html=1;whiteSpace=wrap;connectable=0;strokeColor=inherit;overflow=hidden;fillColor=none;top=0;left=0;bottom=0;right=0;pointerEvents=1;fontSize=12;align=left;spacingLeft=5;" vertex="1" parent="vz9q21WE78nXBUaVW826-119">
          <mxGeometry width="60" height="20" as="geometry">
            <mxRectangle width="60" height="20" as="alternateBounds" />
          </mxGeometry>
        </mxCell>
        <mxCell id="vz9q21WE78nXBUaVW826-165" value="1 to many" style="text;html=1;align=center;verticalAlign=middle;whiteSpace=wrap;rounded=0;fontSize=16;" vertex="1" parent="vz9q21WE78nXBUaVW826-102">
          <mxGeometry x="140" y="70" width="60" height="30" as="geometry" />
        </mxCell>
        <mxCell id="vz9q21WE78nXBUaVW826-123" value="" style="endArrow=none;html=1;rounded=0;fontSize=12;startSize=8;endSize=8;curved=1;entryX=0;entryY=0.5;entryDx=0;entryDy=0;exitX=1;exitY=0.5;exitDx=0;exitDy=0;" edge="1" parent="1" source="vz9q21WE78nXBUaVW826-32" target="vz9q21WE78nXBUaVW826-60">
          <mxGeometry width="50" height="50" relative="1" as="geometry">
            <mxPoint x="390" y="430" as="sourcePoint" />
            <mxPoint x="440" y="380" as="targetPoint" />
          </mxGeometry>
        </mxCell>
        <mxCell id="vz9q21WE78nXBUaVW826-126" style="edgeStyle=none;curved=1;rounded=0;orthogonalLoop=1;jettySize=auto;html=1;exitX=0.75;exitY=0;exitDx=0;exitDy=0;fontSize=12;startSize=8;endSize=8;" edge="1" parent="1" source="vz9q21WE78nXBUaVW826-65" target="vz9q21WE78nXBUaVW826-65">
          <mxGeometry relative="1" as="geometry" />
        </mxCell>
        <mxCell id="vz9q21WE78nXBUaVW826-127" value="" style="endArrow=none;html=1;rounded=0;fontSize=12;startSize=8;endSize=8;curved=1;entryX=0.5;entryY=1;entryDx=0;entryDy=0;exitX=0.5;exitY=0;exitDx=0;exitDy=0;" edge="1" parent="1" source="vz9q21WE78nXBUaVW826-102" target="vz9q21WE78nXBUaVW826-16">
          <mxGeometry width="50" height="50" relative="1" as="geometry">
            <mxPoint x="250" y="420" as="sourcePoint" />
            <mxPoint x="440" y="380" as="targetPoint" />
          </mxGeometry>
        </mxCell>
        <mxCell id="vz9q21WE78nXBUaVW826-128" value="" style="endArrow=none;html=1;rounded=0;fontSize=12;startSize=8;endSize=8;curved=1;" edge="1" parent="1">
          <mxGeometry width="50" height="50" relative="1" as="geometry">
            <mxPoint x="320" y="485" as="sourcePoint" />
            <mxPoint x="450" y="485" as="targetPoint" />
          </mxGeometry>
        </mxCell>
        <mxCell id="vz9q21WE78nXBUaVW826-147" value="" style="endArrow=none;html=1;rounded=0;fontSize=12;startSize=8;endSize=8;curved=1;" edge="1" parent="1">
          <mxGeometry width="50" height="50" relative="1" as="geometry">
            <mxPoint x="450" y="190" as="sourcePoint" />
            <mxPoint x="450" y="190" as="targetPoint" />
          </mxGeometry>
        </mxCell>
        <mxCell id="vz9q21WE78nXBUaVW826-160" value="1 to many" style="text;html=1;align=center;verticalAlign=middle;whiteSpace=wrap;rounded=0;fontSize=16;" vertex="1" parent="1">
          <mxGeometry x="407.5" y="140" width="60" height="30" as="geometry" />
        </mxCell>
        <mxCell id="vz9q21WE78nXBUaVW826-161" value="&lt;div&gt;many to many&lt;/div&gt;&lt;div&gt;&lt;br&gt;&lt;/div&gt;" style="text;html=1;align=center;verticalAlign=middle;whiteSpace=wrap;rounded=0;fontSize=16;" vertex="1" parent="1">
          <mxGeometry x="347.5" y="200" width="60" height="30" as="geometry" />
        </mxCell>
        <mxCell id="vz9q21WE78nXBUaVW826-163" value="1 to many" style="text;html=1;align=center;verticalAlign=middle;whiteSpace=wrap;rounded=0;fontSize=16;" vertex="1" parent="1">
          <mxGeometry x="190" y="340" width="60" height="30" as="geometry" />
        </mxCell>
        <mxCell id="vz9q21WE78nXBUaVW826-164" value="&lt;div&gt;many to 1&lt;/div&gt;" style="text;html=1;align=center;verticalAlign=middle;whiteSpace=wrap;rounded=0;fontSize=16;" vertex="1" parent="1">
          <mxGeometry x="260" y="393.75" width="60" height="30" as="geometry" />
        </mxCell>
        <mxCell id="vz9q21WE78nXBUaVW826-167" value="many to 1" style="text;html=1;align=center;verticalAlign=middle;whiteSpace=wrap;rounded=0;fontSize=16;" vertex="1" parent="1">
          <mxGeometry x="390" y="450" width="60" height="30" as="geometry" />
        </mxCell>
      </root>
    </mxGraphModel>
  </diagram>
</mxfile>
